<svg width="283" height="158" viewBox="0 0 283 158" fill="none" xmlns="http://www.w3.org/2000/svg">
<path fill-rule="evenodd" clip-rule="evenodd" d="M59.8654 158C77.8996 158 92.5192 143.38 92.5192 125.346C92.5192 107.312 77.8996 92.6923 59.8654 92.6923C41.8312 92.6923 27.2115 107.312 27.2115 125.346C27.2115 143.38 41.8312 158 59.8654 158ZM60.1298 148.26C72.904 148.26 83.2596 137.904 83.2596 125.13C83.2596 112.356 72.904 102 60.1298 102C47.3556 102 37 112.356 37 125.13C37 137.904 47.3556 148.26 60.1298 148.26Z" fill="#FBFBFB"/>
<path fill-rule="evenodd" clip-rule="evenodd" d="M212.25 158C230.284 158 244.904 143.38 244.904 125.346C244.904 107.312 230.284 92.6923 212.25 92.6923C194.216 92.6923 179.596 107.312 179.596 125.346C179.596 143.38 194.216 158 212.25 158ZM212.13 148.26C224.904 148.26 235.26 137.904 235.26 125.13C235.26 112.356 224.904 102 212.13 102C199.356 102 189 112.356 189 125.13C189 137.904 199.356 148.26 212.13 148.26Z" fill="#FBFBFB"/>
<path fill-rule="evenodd" clip-rule="evenodd" d="M97.9615 125.346L125.12 125.346L174.154 125.346C174.154 104.306 191.21 87.25 212.25 87.25C233.29 87.25 250.346 104.306 250.346 125.346L269.447 125.346C280.661 125.346 287.006 112.06 280.182 102.867L208.019 5.64457C205.005 1.5842 200.373 -0.216283 195.923 0.243124V0.173084H13.6058C6.09151 0.173084 0 6.26459 0 13.7789V114.462C0 120.473 4.87321 125.346 10.8846 125.346L21.7692 125.346C21.7692 104.306 38.8255 87.25 59.8654 87.25C80.9053 87.25 97.9615 104.306 97.9615 125.346ZM114.028 48.3619C117.089 52.8582 121.713 57.498 127.9 62.2813C129.813 60.3042 131.248 57.5937 132.204 54.1497L141.054 57.3067C139.969 61.6116 138.008 65.5339 135.17 69.0735C135.967 69.7751 137.339 70.8274 139.284 72.2305L142.632 74.6221L137.131 82.9451C133.305 80.9361 130.004 78.7517 127.23 76.392C121.139 80.7607 115.001 82.9451 108.814 82.9451C102.596 82.9451 97.6373 81.4782 93.9383 78.5444C90.2711 75.6107 88.4375 71.4014 88.4375 65.9166C88.4375 59.5708 92.296 53.5279 100.013 47.788C95.1022 41.4421 92.6468 35.6384 92.6468 30.3768C92.6468 25.1471 94.305 21.0813 97.6214 18.1795C100.97 15.2457 105.705 13.7788 111.828 13.7788C115.909 13.7788 119.162 14.4804 121.586 15.8835C124.009 17.2547 125.747 19.0723 126.799 21.3364C127.884 23.6005 128.426 26.0878 128.426 28.7983C128.426 31.477 127.931 33.8208 126.943 35.8298C125.954 37.8068 124.392 39.768 122.255 41.7132C120.151 43.6265 117.408 45.8428 114.028 48.3619ZM117.807 30.2812C117.807 25.1152 115.862 22.5322 111.971 22.5322C107.06 22.5322 104.605 25.1152 104.605 30.2812C104.605 34.1078 106.008 37.9503 108.814 41.8089C114.809 37.7271 117.807 33.8846 117.807 30.2812ZM105.657 55.5369C103.138 58.0561 101.879 60.926 101.879 64.1468C101.879 70.1099 105.402 73.0915 112.45 73.0915C115.798 73.0915 118.269 72.103 119.864 70.1259C112.657 63.6844 107.921 58.8214 105.657 55.5369ZM80.2103 34.3948C80.2103 38.8273 78.8231 42.5423 76.0488 45.5398C73.2745 48.5373 69.7987 50.8174 65.6213 52.3799C68.8739 53.7511 71.0264 55.4253 72.0787 57.4023L79.2058 71.0347C82.3308 72.0232 84.4355 73.2191 85.5197 74.6221L84.5152 82.1797H67.9651L56.6765 58.1677C55.688 55.7441 54.4922 54.5324 53.0891 54.5324H46.7273V70.2215C51.4468 71.2738 54.4124 72.5494 55.6242 74.0482L54.6197 82.1797H28.1682L27.2115 74.0482C28.0725 72.9321 29.8742 71.8478 32.6166 70.7955V26.024C29.9061 25.0674 28.1044 23.9672 27.2115 22.7236L28.1682 14.592H53.1847C59.2754 14.6558 64.3138 15.3095 68.2999 16.5531C72.286 17.7649 75.2675 19.8058 77.2446 22.6757C79.2217 25.5138 80.2103 29.4202 80.2103 34.3948ZM52.4672 25.2587H46.7273V43.8657H52.2759C56.7403 43.8657 60.0567 43.196 62.2251 41.8567C64.4254 40.5174 65.5256 38.1098 65.5256 34.6339C65.5256 31.19 64.4095 28.7665 62.1773 27.3634C59.977 25.9603 56.7403 25.2587 52.4672 25.2587ZM164.779 29.9942C167.234 26.5821 170.678 24.8761 175.11 24.8761C178.331 24.8761 181.329 25.3703 184.103 26.3589C184.422 29.8666 185.076 32.5771 186.064 34.4904H195.105C195.679 33.3425 196.157 31.9553 196.54 30.329C196.922 28.6708 197.209 27.0923 197.401 25.5935C197.624 24.0629 197.735 22.9309 197.735 22.1974V19.9971C192.027 15.8516 184.645 13.7788 175.589 13.7788C166.564 13.7788 159.437 16.6648 154.208 22.4366C149.01 28.1765 146.411 37.0415 146.411 49.0316C146.411 61.0217 148.595 69.6794 152.964 75.0048C157.333 80.2983 164.189 82.9451 173.532 82.9451C179.144 82.9451 183.832 82.4827 187.595 81.5579C191.358 80.6012 194.802 78.9749 197.927 76.679V58.5503C200.159 57.5937 201.706 56.5892 202.567 55.5369L201.562 47.788H178.65L177.646 55.5369C178.73 56.94 180.787 58.1517 183.816 59.1722V70.2215C181.042 71.3376 177.917 71.8957 174.441 71.8957C165.544 71.8957 161.095 63.8279 161.095 47.6923C161.095 39.2737 162.323 33.3743 164.779 29.9942Z" fill="#FBFBFB"/>
</svg>
